<svg width="42" height="42" viewBox="0 0 42 42" fill="none" xmlns="http://www.w3.org/2000/svg">
    <circle opacity="0.92" cx="21.119" cy="20.8708" r="19.4011" stroke="#FF9179" stroke-width="1.64399" />
    <path opacity="0.92" d="M29.259 27.4263V27.4263C24.171 24.19 17.664 24.1878 12.5774 27.4263V27.4263"
        stroke="#FF9179" stroke-width="1.51651" stroke-linecap="round" stroke-linejoin="round" />
    <g opacity="0.92">
        <mask id="path-3-inside-1" fill="white">
            <path
                d="M11.0298 16.1994C11.0298 16.6048 11.1324 17.0063 11.3319 17.3808C11.5314 17.7554 11.8238 18.0957 12.1923 18.3824C12.5609 18.6691 12.9985 18.8965 13.4801 19.0516C13.9616 19.2068 14.4778 19.2866 14.999 19.2866C15.5203 19.2866 16.0364 19.2068 16.518 19.0516C16.9996 18.8965 17.4371 18.6691 17.8057 18.3824C18.1743 18.0957 18.4666 17.7554 18.6661 17.3808C18.8656 17.0063 18.9683 16.6048 18.9683 16.1994L17.7386 16.1994C17.7386 16.4793 17.6677 16.7563 17.5301 17.0148C17.3924 17.2734 17.1906 17.5083 16.9362 17.7061C16.6818 17.904 16.3798 18.0609 16.0474 18.168C15.715 18.2751 15.3588 18.3302 14.999 18.3302C14.6393 18.3302 14.283 18.2751 13.9506 18.168C13.6182 18.0609 13.3162 17.904 13.0618 17.7061C12.8075 17.5083 12.6057 17.2734 12.468 17.0148C12.3303 16.7563 12.2594 16.4793 12.2594 16.1994L11.0298 16.1994Z" />
        </mask>
        <path
            d="M11.0298 16.1994C11.0298 16.6048 11.1324 17.0063 11.3319 17.3808C11.5314 17.7554 11.8238 18.0957 12.1923 18.3824C12.5609 18.6691 12.9985 18.8965 13.4801 19.0516C13.9616 19.2068 14.4778 19.2866 14.999 19.2866C15.5203 19.2866 16.0364 19.2068 16.518 19.0516C16.9996 18.8965 17.4371 18.6691 17.8057 18.3824C18.1743 18.0957 18.4666 17.7554 18.6661 17.3808C18.8656 17.0063 18.9683 16.6048 18.9683 16.1994L17.7386 16.1994C17.7386 16.4793 17.6677 16.7563 17.5301 17.0148C17.3924 17.2734 17.1906 17.5083 16.9362 17.7061C16.6818 17.904 16.3798 18.0609 16.0474 18.168C15.715 18.2751 15.3588 18.3302 14.999 18.3302C14.6393 18.3302 14.283 18.2751 13.9506 18.168C13.6182 18.0609 13.3162 17.904 13.0618 17.7061C12.8075 17.5083 12.6057 17.2734 12.468 17.0148C12.3303 16.7563 12.2594 16.4793 12.2594 16.1994L11.0298 16.1994Z"
            stroke="#FF9179" stroke-width="3.03303" mask="url(#path-3-inside-1)" />
    </g>
    <g opacity="0.92">
        <mask id="path-4-inside-2" fill="white">
            <path
                d="M22.4968 16.1994C22.4968 16.6048 22.5995 17.0063 22.799 17.3808C22.9984 17.7554 23.2908 18.0957 23.6594 18.3824C24.028 18.6691 24.4655 18.8965 24.9471 19.0516C25.4287 19.2068 25.9448 19.2866 26.4661 19.2866C26.9873 19.2866 27.5035 19.2068 27.985 19.0516C28.4666 18.8965 28.9042 18.6691 29.2727 18.3824C29.6413 18.0957 29.9337 17.7554 30.1332 17.3808C30.3326 17.0063 30.4353 16.6048 30.4353 16.1994L29.2056 16.1994C29.2056 16.4793 29.1348 16.7563 28.9971 17.0148C28.8594 17.2734 28.6576 17.5083 28.4032 17.7061C28.1488 17.904 27.8468 18.0609 27.5145 18.168C27.1821 18.2751 26.8258 18.3302 26.4661 18.3302C26.1063 18.3302 25.7501 18.2751 25.4177 18.168C25.0853 18.0609 24.7833 17.904 24.5289 17.7061C24.2745 17.5083 24.0727 17.2734 23.935 17.0148C23.7973 16.7563 23.7265 16.4793 23.7265 16.1994L22.4968 16.1994Z" />
        </mask>
        <path
            d="M22.4968 16.1994C22.4968 16.6048 22.5995 17.0063 22.799 17.3808C22.9984 17.7554 23.2908 18.0957 23.6594 18.3824C24.028 18.6691 24.4655 18.8965 24.9471 19.0516C25.4287 19.2068 25.9448 19.2866 26.4661 19.2866C26.9873 19.2866 27.5035 19.2068 27.985 19.0516C28.4666 18.8965 28.9042 18.6691 29.2727 18.3824C29.6413 18.0957 29.9337 17.7554 30.1332 17.3808C30.3326 17.0063 30.4353 16.6048 30.4353 16.1994L29.2056 16.1994C29.2056 16.4793 29.1348 16.7563 28.9971 17.0148C28.8594 17.2734 28.6576 17.5083 28.4032 17.7061C28.1488 17.904 27.8468 18.0609 27.5145 18.168C27.1821 18.2751 26.8258 18.3302 26.4661 18.3302C26.1063 18.3302 25.7501 18.2751 25.4177 18.168C25.0853 18.0609 24.7833 17.904 24.5289 17.7061C24.2745 17.5083 24.0727 17.2734 23.935 17.0148C23.7973 16.7563 23.7265 16.4793 23.7265 16.1994L22.4968 16.1994Z"
            stroke="#FF9179" stroke-width="3.03303" mask="url(#path-4-inside-2)" />
    </g>
</svg>